<svg width="21" height="18" viewBox="0 0 21 18" fill="none" xmlns="http://www.w3.org/2000/svg">
<path d="M7.04249 18C8.15374 18 9.05459 17.2325 9.05459 16.2857C9.05459 15.339 8.15374 14.5714 7.04249 14.5714C5.93124 14.5714 5.0304 15.339 5.0304 16.2857C5.0304 17.2325 5.93124 18 7.04249 18Z" fill="#333333"/>
<path d="M17.7734 18C18.8847 18 19.7855 17.2325 19.7855 16.2857C19.7855 15.339 18.8847 14.5714 17.7734 14.5714C16.6622 14.5714 15.7614 15.339 15.7614 16.2857C15.7614 17.2325 16.6622 18 17.7734 18Z" fill="#333333"/>
<path fill-rule="evenodd" clip-rule="evenodd" d="M3.64009 3.7448C3.83114 3.54471 4.11776 3.42857 4.42047 3.42857H19.7855C20.0772 3.42857 20.3546 3.5364 20.5456 3.72414C20.7367 3.91186 20.8228 4.16094 20.7815 4.40694L19.4402 12.4069C19.3693 12.8292 18.9449 13.1428 18.4442 13.1428H6.3716C5.89483 13.1428 5.48356 12.8578 5.38658 12.46L3.43548 4.46008C3.37389 4.20757 3.44904 3.94486 3.64009 3.7448ZM5.6571 5.14288L7.19012 11.4286H17.5716L18.6256 5.14288H5.6571Z" fill="#333333"/>
<path fill-rule="evenodd" clip-rule="evenodd" d="M0 0.857141C0 0.383751 0.450418 0 1.00605 0H3.68884C4.17505 0 4.59172 0.296245 4.67864 0.703808L5.41034 4.13239C5.50974 4.59816 5.14716 5.0443 4.60047 5.12899C4.05382 5.21367 3.53008 4.90476 3.4307 4.43908L2.84922 1.71428H1.00605C0.450418 1.71428 0 1.33052 0 0.857141Z" fill="#333333"/>
</svg>
