<svg width="15" height="15" viewBox="0 0 15 15" fill="none" xmlns="http://www.w3.org/2000/svg">
<path d="M12.2002 11.1597C12.2002 11.7274 12.0374 12.2144 11.7119 12.6206C11.3864 13.0269 10.9945 13.23 10.5361 13.23H3.86426C3.40592 13.23 3.014 13.0269 2.68848 12.6206C2.36296 12.2144 2.2002 11.7274 2.2002 11.1597C2.2002 10.717 2.22233 10.299 2.2666 9.90576C2.31087 9.51253 2.3929 9.1167 2.5127 8.71826C2.63249 8.31982 2.78483 7.97868 2.96973 7.69482C3.15462 7.41097 3.39941 7.1792 3.7041 6.99951C4.00879 6.81982 4.35905 6.72998 4.75488 6.72998C5.43717 7.39665 6.25228 7.72998 7.2002 7.72998C8.14811 7.72998 8.96322 7.39665 9.64551 6.72998C10.0413 6.72998 10.3916 6.81982 10.6963 6.99951C11.001 7.1792 11.2458 7.41097 11.4307 7.69482C11.6156 7.97868 11.7679 8.31982 11.8877 8.71826C12.0075 9.1167 12.0895 9.51253 12.1338 9.90576C12.1781 10.299 12.2002 10.717 12.2002 11.1597ZM10.2002 4.22998C10.2002 5.05811 9.90723 5.76514 9.32129 6.35107C8.73535 6.93701 8.02832 7.22998 7.2002 7.22998C6.37207 7.22998 5.66504 6.93701 5.0791 6.35107C4.49316 5.76514 4.2002 5.05811 4.2002 4.22998C4.2002 3.40186 4.49316 2.69482 5.0791 2.10889C5.66504 1.52295 6.37207 1.22998 7.2002 1.22998C8.02832 1.22998 8.73535 1.52295 9.32129 2.10889C9.90723 2.69482 10.2002 3.40186 10.2002 4.22998Z" fill="#555555"/>
</svg>
