<svg width="15" height="15" viewBox="0 0 15 15" fill="none" xmlns="http://www.w3.org/2000/svg">
<g clip-path="url(#clip0_41_476)">
<path d="M2.31006 13.73H4.56006V11.48H2.31006V13.73ZM5.06006 13.73H7.56006V11.48H5.06006V13.73ZM2.31006 10.98H4.56006V8.47998H2.31006V10.98ZM5.06006 10.98H7.56006V8.47998H5.06006V10.98ZM2.31006 7.97998H4.56006V5.72998H2.31006V7.97998ZM8.06006 13.73H10.5601V11.48H8.06006V13.73ZM5.06006 7.97998H7.56006V5.72998H5.06006V7.97998ZM11.0601 13.73H13.3101V11.48H11.0601V13.73ZM8.06006 10.98H10.5601V8.47998H8.06006V10.98ZM5.31006 4.22998V1.97998C5.31006 1.91227 5.28532 1.85368 5.23584 1.8042C5.18636 1.75472 5.12777 1.72998 5.06006 1.72998H4.56006C4.49235 1.72998 4.43376 1.75472 4.38428 1.8042C4.3348 1.85368 4.31006 1.91227 4.31006 1.97998V4.22998C4.31006 4.29769 4.3348 4.35628 4.38428 4.40576C4.43376 4.45524 4.49235 4.47998 4.56006 4.47998H5.06006C5.12777 4.47998 5.18636 4.45524 5.23584 4.40576C5.28532 4.35628 5.31006 4.29769 5.31006 4.22998ZM11.0601 10.98H13.3101V8.47998H11.0601V10.98ZM8.06006 7.97998H10.5601V5.72998H8.06006V7.97998ZM11.0601 7.97998H13.3101V5.72998H11.0601V7.97998ZM11.3101 4.22998V1.97998C11.3101 1.91227 11.2853 1.85368 11.2358 1.8042C11.1864 1.75472 11.1278 1.72998 11.0601 1.72998H10.5601C10.4924 1.72998 10.4338 1.75472 10.3843 1.8042C10.3348 1.85368 10.3101 1.91227 10.3101 1.97998V4.22998C10.3101 4.29769 10.3348 4.35628 10.3843 4.40576C10.4338 4.45524 10.4924 4.47998 10.5601 4.47998H11.0601C11.1278 4.47998 11.1864 4.45524 11.2358 4.40576C11.2853 4.35628 11.3101 4.29769 11.3101 4.22998ZM14.3101 3.72998V13.73C14.3101 14.0008 14.2111 14.2352 14.0132 14.4331C13.8153 14.631 13.5809 14.73 13.3101 14.73H2.31006C2.03923 14.73 1.80485 14.631 1.60693 14.4331C1.40902 14.2352 1.31006 14.0008 1.31006 13.73V3.72998C1.31006 3.45915 1.40902 3.22477 1.60693 3.02686C1.80485 2.82894 2.03923 2.72998 2.31006 2.72998H3.31006V1.97998C3.31006 1.63623 3.43245 1.34196 3.67725 1.09717C3.92204 0.852376 4.21631 0.72998 4.56006 0.72998H5.06006C5.40381 0.72998 5.69808 0.852376 5.94287 1.09717C6.18766 1.34196 6.31006 1.63623 6.31006 1.97998V2.72998H9.31006V1.97998C9.31006 1.63623 9.43245 1.34196 9.67725 1.09717C9.92204 0.852376 10.2163 0.72998 10.5601 0.72998H11.0601C11.4038 0.72998 11.6981 0.852376 11.9429 1.09717C12.1877 1.34196 12.3101 1.63623 12.3101 1.97998V2.72998H13.3101C13.5809 2.72998 13.8153 2.82894 14.0132 3.02686C14.2111 3.22477 14.3101 3.45915 14.3101 3.72998Z" fill="#555555"/>
</g>
<defs>
<clipPath id="clip0_41_476">
<rect width="14" height="14" fill="white" transform="translate(0.810059 0.72998)"/>
</clipPath>
</defs>
</svg>
