<svg width="25" height="26" viewBox="0 0 25 26" fill="none" xmlns="http://www.w3.org/2000/svg">
<path d="M20.5208 3.875H4.47917C3.73125 3.875 3.125 4.48125 3.125 5.22917V21.2708C3.125 22.0187 3.73125 22.625 4.47917 22.625H20.5208C21.2687 22.625 21.875 22.0187 21.875 21.2708V5.22917C21.875 4.48125 21.2687 3.875 20.5208 3.875ZM8.68646 19.8521H5.90312V10.9042H8.68646V19.8521ZM7.29583 9.68125C6.40313 9.68125 5.68229 8.95833 5.68229 8.06875C5.68229 7.17812 6.40208 6.45625 7.29583 6.45625C8.18542 6.45625 8.90729 7.17917 8.90729 8.06875C8.90729 8.95937 8.18542 9.68125 7.29583 9.68125ZM19.1031 19.8521H16.3229V15.501C16.3229 14.4635 16.3052 13.1281 14.8781 13.1281C13.4312 13.1281 13.2104 14.2594 13.2104 15.426V19.8521H10.4323V10.9042H13.0979V12.1271H13.1365C13.5073 11.424 14.4146 10.6823 15.7677 10.6823C18.5833 10.6823 19.1042 12.5354 19.1042 14.9448L19.1031 19.8521Z" fill="#555555"/>
</svg>
