<svg width="25" height="26" viewBox="0 0 25 26" fill="none" xmlns="http://www.w3.org/2000/svg">
<path d="M23.1563 6.92116C22.3897 7.26074 21.5657 7.49095 20.7011 7.59408C21.5834 7.06491 22.2615 6.22741 22.5803 5.22949C21.7542 5.71908 20.8397 6.07533 19.8657 6.26699C19.0876 5.43574 17.9761 4.91699 16.747 4.91699C14.3865 4.91699 12.473 6.83053 12.473 9.19095C12.473 9.52637 12.5105 9.85241 12.5834 10.1649C9.03133 9.98678 5.88237 8.28574 3.77404 5.69928C3.40633 6.33053 3.19487 7.06491 3.19487 7.84824C3.19487 9.33158 3.94904 10.6389 5.09591 11.4055C4.39487 11.3837 3.73654 11.1909 3.15946 10.8712C3.15946 10.8889 3.15946 10.9066 3.15946 10.9253C3.15946 12.9962 4.63237 14.7243 6.58862 15.116C6.23029 15.2139 5.85216 15.266 5.46258 15.266C5.18758 15.266 4.91987 15.2389 4.65841 15.1889C5.20216 16.8868 6.78133 18.1222 8.65112 18.1576C7.18862 19.3035 5.34487 19.9868 3.34279 19.9868C2.998 19.9868 2.65737 19.967 2.323 19.9274C4.21466 21.1399 6.46154 21.8472 8.87508 21.8472C16.7365 21.8472 21.0365 15.3347 21.0365 9.68574C21.0365 9.50033 21.0324 9.31595 21.024 9.13262C21.8595 8.53158 22.5834 7.77845 23.1563 6.92116Z" fill="#555555"/>
</svg>
