<svg width="18" height="18" viewBox="0 0 18 18" fill="none" xmlns="http://www.w3.org/2000/svg">
<path d="M10.4795 0C6.41096 0 3.08219 3.32877 3.08219 7.39726C3.08219 9.12329 3.69863 10.726 4.68493 11.9589L0 16.6438L1.35616 18L6.0411 13.3151C7.27397 14.3014 8.87671 14.9178 10.6027 14.9178C14.6712 14.9178 18 11.589 18 7.52055C18 3.45206 14.5479 0 10.4795 0ZM10.4795 12.9452C7.39726 12.9452 4.93151 10.4795 4.93151 7.39726C4.93151 4.31507 7.39726 1.84931 10.4795 1.84931C13.5616 1.84931 16.0274 4.31507 16.0274 7.39726C16.0274 10.4795 13.5616 12.9452 10.4795 12.9452Z" fill="#111111"/>
</svg>
